<?xml version="1.0" standalone="no"?>
<!DOCTYPE svg PUBLIC "-//W3C//DTD SVG 20010904//EN"
 "http://www.w3.org/TR/2001/REC-SVG-20010904/DTD/svg10.dtd">
<svg version="1.0" xmlns="http://www.w3.org/2000/svg"
 width="512.000000pt" height="512.000000pt" viewBox="0 0 512.000000 512.000000"
 preserveAspectRatio="xMidYMid meet">
<metadata>
Created by potrace 1.11, written by Peter Selinger 2001-2013
</metadata>
<g transform="translate(0.000000,512.000000) scale(0.100000,-0.100000)"
fill="#000000" stroke="none">
<path d="M2379 5116 c-2 -2 -38 -6 -79 -10 -64 -6 -213 -30 -315 -51 -124 -26
-334 -97 -478 -161 -746 -335 -1299 -1031 -1456 -1829 -40 -200 -46 -267 -45
-515 0 -183 3 -241 19 -345 3 -16 7 -43 9 -60 32 -230 142 -554 267 -790 260
-491 711 -912 1209 -1129 47 -21 94 -42 105 -47 62 -28 307 -101 415 -123 216
-43 292 -51 525 -51 169 0 311 8 370 20 11 3 34 6 50 9 17 2 55 10 85 16 30 6
69 14 85 17 17 3 82 21 145 40 682 206 1241 674 1555 1302 100 198 164 377
210 581 29 129 33 151 51 290 9 71 12 437 4 515 -12 120 -21 179 -35 245 -3
14 -10 50 -16 80 -26 132 -113 384 -189 544 -323 682 -967 1206 -1695 1381
-105 25 -189 41 -265 51 -25 3 -56 8 -70 10 -30 7 -455 15 -461 10z m450 -230
c14 -3 47 -8 75 -11 83 -9 273 -54 382 -90 772 -255 1363 -895 1549 -1677 26
-111 31 -143 52 -303 16 -121 9 -468 -12 -590 -3 -16 -7 -43 -10 -60 -51 -302
-167 -597 -343 -870 -376 -582 -1026 -983 -1707 -1052 -99 -10 -383 -10 -490
-1 -251 22 -534 102 -780 219 -426 202 -805 564 -1040 989 -105 191 -205 465
-239 655 -3 17 -8 41 -11 54 -2 13 -7 49 -11 80 -3 31 -9 60 -12 65 -9 16 -10
427 -1 491 4 33 11 85 14 115 8 74 49 255 82 360 134 434 405 830 765 1120
135 110 190 146 358 240 255 142 585 242 875 266 44 4 82 8 84 10 6 6 392 -4
420 -10z"/>
<path d="M1995 3563 c-38 -10 -65 -36 -76 -73 -9 -30 -8 -43 5 -72 31 -64 22
-63 523 -63 376 0 452 -2 448 -13 -4 -11 -573 -968 -897 -1509 -44 -73 -81
-147 -84 -165 -6 -41 25 -94 62 -108 15 -6 246 -10 585 -10 621 0 607 -1 635
65 19 45 8 90 -28 120 -34 29 17 26 -571 26 -290 0 -378 3 -374 12 3 7 226
380 496 830 376 628 491 826 491 850 -1 41 -19 73 -56 98 -28 18 -51 19 -584
18 -305 -1 -564 -4 -575 -6z"/>
</g>
</svg>
