<?xml version="1.0" standalone="no"?>
<!DOCTYPE svg PUBLIC "-//W3C//DTD SVG 20010904//EN"
 "http://www.w3.org/TR/2001/REC-SVG-20010904/DTD/svg10.dtd">
<svg version="1.0" xmlns="http://www.w3.org/2000/svg"
 width="100.000000pt" height="100.000000pt" viewBox="0 0 100.000000 100.000000"
 preserveAspectRatio="xMidYMid meet">
<metadata>
Created by potrace 1.11, written by Peter Selinger 2001-2013
</metadata>
<g transform="translate(0.000000,100.000000) scale(0.100000,-0.100000)"
fill="#000000" stroke="none">
<path d="M380 946 c-196 -55 -332 -227 -339 -431 -5 -125 41 -239 134 -330 93
-93 183 -131 310 -134 366 -8 591 392 393 702 -101 159 -318 243 -498 193z
m206 -37 c77 -19 131 -48 189 -101 283 -258 92 -728 -292 -717 -301 8 -493
332 -356 602 83 166 283 259 459 216z"/>
<path d="M370 663 c0 -22 3 -23 95 -23 52 0 95 -2 95 -5 0 -3 -44 -66 -99
-141 -54 -76 -98 -144 -96 -153 2 -14 20 -16 124 -16 128 -1 148 3 138 28 -4
11 -26 14 -105 13 -71 -1 -98 2 -94 10 4 6 50 70 101 143 52 73 96 139 97 147
3 16 11 15 -139 17 -115 2 -117 2 -117 -20z"/>
</g>
</svg>
